<?xml version="1.0" encoding="UTF-8"?> <svg xmlns="http://www.w3.org/2000/svg" id="Capa_1" data-name="Capa 1" viewBox="0 0 464.8 384.4"><defs><style>.cls-1{fill:#0172b1;}.cls-2,.cls-6{fill:#fff;}.cls-3{fill:#3cbfbd;}.cls-4,.cls-5{stroke:#000;stroke-miterlimit:10;}.cls-4{stroke-width:2px;}.cls-5{stroke-width:3px;}.cls-6{fill-opacity:0;}.cls-6,.cls-7,.cls-8{fill-rule:evenodd;}.cls-7{fill:#3174b9;}.cls-8{fill:#ca3132;}.cls-9{fill:#7759a6;}</style></defs><circle class="cls-1" cx="234.38" cy="192.2" r="144.91"></circle><path class="cls-2" d="M353.53,266.25a3.84,3.84,0,0,0,3.82-3.81V99.75a3.84,3.84,0,0,0-3.82-3.81H115.23a3.83,3.83,0,0,0-3.81,3.81V262.44a3.83,3.83,0,0,0,3.81,3.81Z"></path><path d="M353.53,90.09H115.23a9.83,9.83,0,0,0-9.78,9.78V262.56a9.83,9.83,0,0,0,9.78,9.78H206v-6H115.23a3.83,3.83,0,0,1-3.81-3.81V99.75a3.83,3.83,0,0,1,3.81-3.81H353.41a3.83,3.83,0,0,1,3.82,3.81V262.44a3.83,3.83,0,0,1-3.82,3.81H262.65v6h90.76a9.83,9.83,0,0,0,9.78-9.78V99.75a9.63,9.63,0,0,0-9.59-9.66Z"></path><path class="cls-2" d="M169.74,291.3v6.2a.38.38,0,0,0,.36.36H298.55a.33.33,0,0,0,.36-.28V291.3a.33.33,0,0,0-.28-.36H170.1A.38.38,0,0,0,169.74,291.3Z"></path><path d="M262.77,291h35.9a.4.4,0,0,1,.36.36v6.2a.33.33,0,0,1-.29.36H170.1a.32.32,0,0,1-.36-.28v-6.28a.39.39,0,0,1,.36-.36H206v-6H170.1a6.37,6.37,0,0,0-6.32,6.32v6.2a6.37,6.37,0,0,0,6.32,6.33H298.55a6.38,6.38,0,0,0,6.32-6.33v-6.2a6.37,6.37,0,0,0-6.32-6.32h-35.9v6Z"></path><rect class="cls-2" x="211.96" y="272.22" width="44.73" height="12.76"></rect><path d="M262.77,266.25H206.12V291h56.65v-24.7Zm-6,18.73H212.08V272.22h44.73Z"></path><path class="cls-3" d="M340.86,298.62a19.77,19.77,0,0,1,2.88,0c2.72.44,4.41-.49,5.16-3.26,1.09-4,3.33-6.84,7.67-7.62a6.83,6.83,0,0,0,1.93-.91,3.19,3.19,0,0,1,3.46,0c5.26,3.45,9.41,2.28,13.12-2.7,1.27-1.71,2.29-2.91,1.12-5-2.19-3.92-3-7.92-.18-11.93a2.13,2.13,0,0,0,.34-.84,3.69,3.69,0,0,1,2.86-3.22c6-1.35,8-5,7.16-11-.35-2.5-.66-4.2-3.26-4.92-4.05-1.13-7.15-3.31-7.88-7.79a3.06,3.06,0,0,0-.52-1.11,4,4,0,0,1-.2-4.59c3.33-5.1,1.92-8.91-2.67-12.54-2-1.6-3.39-2.22-5.82-1.08-2,.95-4.28,2.73-6.58,1.9-4.36-1.57-9.34-2.67-10.43-8.45-.59-3.15-2.73-3.58-5.72-3.84-5.49-.53-8.58,1.19-10.22,6.57-1.2,3.84-8.91,6.94-12.48,5-4.7-2.57-7.91-1.8-11.41,2.25-2.22,2.57-2.85,4.44-1.39,7.4.87,1.76,2.39,3.73,1.63,5.71-1.7,4.29-2.75,9.33-8.53,10.39-.48.08-.91.46-1.4.59a2.8,2.8,0,0,0-2.29,3.2c0,.06,0,.11,0,.17a12.47,12.47,0,0,1,0,3.66c-.78,4.11,1.05,6.11,4.88,7.56a10.58,10.58,0,0,1,6.47,13.47,12.7,12.7,0,0,1-.51,1.2c-1.78,3.81-.9,6,1.85,8.9,3.12,3.34,5.71,3.74,9.69,1.88a10.62,10.62,0,0,1,13.92,5.6l.09.22C335.1,297.46,337.05,299.86,340.86,298.62Z"></path><path class="cls-4" d="M339,300.17c-4.16,0-5.83-4.4-6.52-6.21a9.29,9.29,0,0,0-5.23-5.22,9,9,0,0,0-7.15.07c-4.56,2.13-7.67,1.52-11.11-2.15-2.9-3.11-4.16-5.78-2.06-10.25a9.35,9.35,0,0,0-4.19-12.54,9.14,9.14,0,0,0-1.12-.47c-3.17-1.19-6.69-3.32-5.64-8.93a12.23,12.23,0,0,0,0-3.31,4,4,0,0,1,3.14-4.67h0c.13-.06.27-.12.39-.19a3.76,3.76,0,0,1,1.11-.43c4.34-.8,5.55-4.09,6.95-7.91.22-.59.43-1.19.66-1.73.42-1.06-.27-2.3-1-3.58-.2-.37-.41-.73-.59-1.08-1.82-3.69-.75-6.09,1.57-8.76,3.93-4.54,7.8-5.31,12.91-2.53,1.34.73,3.77.56,6.18-.43s4.13-2.47,4.55-3.85c1.75-5.74,5.3-8,11.51-7.43,2.67.26,6,.59,6.79,4.83.85,4.49,4.29,5.67,8.27,7l1.38.49c1.29.46,2.72-.31,4.25-1.2.45-.25.93-.5,1.41-.72,3.2-1.49,5.11-.33,7.09,1.19,5.4,4.26,6.37,8.9,2.94,14.16a2.74,2.74,0,0,0,.21,3.28,4.15,4.15,0,0,1,.68,1.55c.6,3.57,2.76,5.63,7,6.81,3.47,1,3.83,3.58,4.14,6,.94,6.88-1.72,10.91-8.11,12.34a2.46,2.46,0,0,0-1.93,2.26,3.35,3.35,0,0,1-.52,1.32c-2.19,3.15-2.12,6.43.23,10.64,1.5,2.69.16,4.5-1,6.1l-.17.22c-4.19,5.67-9.15,6.68-14.75,3a1.91,1.91,0,0,0-2.21,0l-.44.25a5.38,5.38,0,0,1-1.85.77c-3.48.62-5.62,2.76-6.7,6.74-.9,3.32-3.1,4.71-6.55,4.14a9.84,9.84,0,0,0-1.33,0H341A7.14,7.14,0,0,1,339,300.17Zm-15.3-14.58a12,12,0,0,1,4.47.89,11.79,11.79,0,0,1,6.6,6.6c1.75,4.62,3.49,5.1,5.73,4.37l.19-.06h1.47a9,9,0,0,1,1.8.06c2.18.36,3.22-.29,3.78-2.39,1.33-4.86,4.24-7.71,8.65-8.5a3.73,3.73,0,0,0,1.05-.49l.51-.28a4.33,4.33,0,0,1,4.7.07c4.57,3,8,2.26,11.44-2.39l.17-.23c1.19-1.67,1.56-2.2.85-3.44-2.79-5-2.82-9.33-.1-13.23a1.28,1.28,0,0,0,.13-.39,4.91,4.91,0,0,1,3.8-4.18c5.12-1.19,7-4,6.22-9.62-.35-2.55-.61-3.43-2.39-3.91-5.14-1.44-8-4.3-8.75-8.77a2.87,2.87,0,0,0-.34-.62,5.23,5.23,0,0,1-.2-6c2.76-4.23,2.06-7.39-2.38-10.91-1.87-1.46-2.74-1.78-4.55-.94-.42.19-.83.42-1.29.67-1.74.94-3.91,2.11-6.23,1.28l-1.35-.48c-4.11-1.41-8.76-3-9.87-8.89-.4-2.12-1.4-2.54-4.64-2.85-5.08-.5-7.5,1.05-8.92,5.7-.65,2.13-2.88,4.16-6,5.41s-6.26,1.42-8.28.32c-4.11-2.23-6.7-1.72-9.9,2-2.08,2.38-2.38,3.76-1.19,6.06.16.32.35.65.53,1,.89,1.58,2,3.58,1.19,5.7q-.33.84-.63,1.68c-1.46,3.95-3.11,8.42-8.82,9.47a2.87,2.87,0,0,0-.4.18,3.71,3.71,0,0,1-.89.39c-1.19.33-1.5.84-1.37,2.05a13.48,13.48,0,0,1,0,4c-.59,3.21.48,4.83,4.1,6.22a11.76,11.76,0,0,1,7.23,15,10.57,10.57,0,0,1-.57,1.34c-1.42,3-1.06,4.64,1.63,7.53s4.72,3.29,8.29,1.62A10.93,10.93,0,0,1,323.68,285.59Z"></path><path class="cls-2" d="M322.41,254.12A19.27,19.27,0,1,0,341.85,235h-.27a19,19,0,0,0-19.17,18.73Z"></path><path class="cls-5" d="M341.63,274.69a20.47,20.47,0,0,1,0-40.92h0a20.46,20.46,0,1,1,.08,40.92Zm0-38.46h0a17.57,17.57,0,0,0-17.95,17.18c0,.24,0,.47,0,.71h0A17.71,17.71,0,0,0,341,272.24h.64a18,18,0,1,0,0-36Z"></path><path class="cls-6" d="M149.74,92.51H319V261.79H149.74Z"></path><path class="cls-7" d="M220.33,181.85s-4.05,2.35,2.88,3.15c8.39.95,12.67.82,21.92-.93a38.26,38.26,0,0,0,5.83,2.84C230.23,195.79,204.05,186.4,220.33,181.85Zm-2.54-11.59s-4.53,3.36,2.4,4.07c9,.93,16,1,28.28-1.35a12.68,12.68,0,0,0,4.36,2.65C227.77,183,199.86,176.21,217.79,170.26Z"></path><path class="cls-8" d="M239.14,150.6c5.11,5.88-1.34,11.17-1.34,11.17s13-6.7,7-15.08c-5.56-7.82-9.82-11.7,13.27-25.09C258.08,121.6,221.83,130.65,239.14,150.6Z"></path><path class="cls-7" d="M266.55,190.42s3,2.47-3.29,4.38c-12,3.62-49.79,4.71-60.3.14-3.78-1.64,3.31-3.92,5.53-4.4a14.61,14.61,0,0,1,3.65-.41c-4.2-3-27.15,5.81-11.65,8.32,42.25,6.85,77-3.08,66.06-8Zm-44.28-32.17s-19.24,4.57-6.81,6.23c5.25.7,15.7.54,25.45-.28,8-.66,16-2.09,16-2.09A33.39,33.39,0,0,0,252,164.7c-19.54,5.14-57.29,2.74-46.42-2.51,9.19-4.45,16.66-3.94,16.66-3.94Zm34.52,19.29c19.86-10.32,10.68-20.24,4.27-18.9a15.36,15.36,0,0,0-2.27.61,3.57,3.57,0,0,1,1.69-1.31c12.68-4.46,22.44,13.15-4.09,20.12A1.64,1.64,0,0,0,256.79,177.54Z"></path><path class="cls-8" d="M244.81,100s11,11-10.43,27.92c-17.19,13.57-3.92,21.31,0,30.16-10-9.06-17.39-17-12.45-24.44,7.25-10.89,27.33-16.17,22.89-33.64Z"></path><path class="cls-7" d="M224.23,205.51c19.06,1.22,48.34-.67,49-9.7,0,0-1.33,3.42-15.75,6.14-16.28,3.06-36.35,2.7-48.25.74C209.26,202.69,211.7,204.71,224.23,205.51Z"></path><path class="cls-8" d="M272.38,221.69h-.58v-.32h1.57v.32h-.58v1.62h-.41Zm3.12.08h0l-.58,1.54h-.27l-.57-1.54h0v1.54h-.39v-1.94h.57l.53,1.37.53-1.37h.56v1.94h-.38v-1.54ZM221.1,240a8.65,8.65,0,0,1-5.4,2.43,3.45,3.45,0,0,1-3.75-3.79c0-2.53,1.41-4.38,7.06-4.38h2.09V240Zm5,5.6V228.25c0-4.43-2.52-7.35-8.61-7.35a22.7,22.7,0,0,0-9.2,2L209,226a21.39,21.39,0,0,1,7.1-1.41c3.51,0,5,1.41,5,4.33v2.19h-1.75c-8.52,0-12.37,3.31-12.37,8.28,0,4.28,2.54,6.72,7.31,6.72a11,11,0,0,0,7.49-3.12l.39,2.63Zm16.56,0h-6.18L229,221.34h5.4L239,236.23l1,4.48a93.17,93.17,0,0,0,4.82-19.37h5.26A98.57,98.57,0,0,1,242.62,245.58Zm23.75-5.6a8.65,8.65,0,0,1-5.41,2.43,3.45,3.45,0,0,1-3.75-3.79c0-2.53,1.42-4.38,7.07-4.38h2.09Zm5,5.6V228.25c0-4.43-2.53-7.35-8.61-7.35a22.75,22.75,0,0,0-9.21,2l.73,3.07a21.5,21.5,0,0,1,7.11-1.41c3.51,0,5,1.41,5,4.33v2.19h-1.76c-8.52,0-12.36,3.31-12.36,8.28,0,4.28,2.53,6.72,7.3,6.72a11,11,0,0,0,7.5-3.12l.39,2.63Zm-69.79,4.12a13,13,0,0,1-6.2,4.62l-2.45-2.88a10.36,10.36,0,0,0,4.3-4c.65-1.31.92-3,.92-7V212.72h5.28V240C203.39,245.4,203,247.58,201.54,249.7Z"></path><path class="cls-2" d="M74.22,81.09H190.46v76.73a4,4,0,0,1-4.05,4.05H78.28a4.05,4.05,0,0,1-4.06-4.05Zm0,0"></path><path class="cls-3" d="M119.39,140.29a2.9,2.9,0,0,1,0,4,3,3,0,0,1-2,.68h-4.27a6.8,6.8,0,0,1-5.09-1.83,6.91,6.91,0,0,1-1.79-5.06V127a5.47,5.47,0,0,0-.8-3.3,3.81,3.81,0,0,0-2.84-1.19,2.85,2.85,0,0,1-2-4.73,2.86,2.86,0,0,1,2-.79,3.86,3.86,0,0,0,2.84-1.2,5.38,5.38,0,0,0,.8-3.3v-11A6.91,6.91,0,0,1,108,96.44a6.81,6.81,0,0,1,5.09-1.82h4.27a2.68,2.68,0,1,1,0,5.34h-1.83a2.44,2.44,0,0,0-1.79.6,2.64,2.64,0,0,0-.6,1.91v10.92a6.75,6.75,0,0,1-1.33,4.29,5.38,5.38,0,0,1-3.16,2.13,5.49,5.49,0,0,1,3.16,2.1,6.7,6.7,0,0,1,1.33,4.27v10.93a2.62,2.62,0,0,0,.6,1.9,2.44,2.44,0,0,0,1.79.6h1.83a3,3,0,0,1,2,.68Zm0,0"></path><path class="cls-9" d="M129.33,113.59a4.44,4.44,0,0,1,0-6.06,4.2,4.2,0,0,1,6,0,4.15,4.15,0,0,1,1.21,3,4.21,4.21,0,0,1-1.19,3,4.33,4.33,0,0,1-6,0Zm6,14.36a6.29,6.29,0,0,1,1.19,4.15,13,13,0,0,1-3.75,9.33,2.19,2.19,0,0,1-1.59.74,2.08,2.08,0,0,1-1.48-.57,1.75,1.75,0,0,1-.62-1.36,1.9,1.9,0,0,1,.57-1.31,8.75,8.75,0,0,0,2.21-4.1,4.15,4.15,0,0,1-2.7-1.28,3.85,3.85,0,0,1-1.05-2.76,4.29,4.29,0,0,1,1.16-3,4.18,4.18,0,0,1,3.08-1.22,4.13,4.13,0,0,1,3,1.43Zm0,0"></path><path class="cls-3" d="M164.1,117.82a2.72,2.72,0,0,1,.71,1.94,2.82,2.82,0,0,1-.69,2,2.75,2.75,0,0,1-2,.83,3.82,3.82,0,0,0-2.85,1.19,5.39,5.39,0,0,0-.79,3.3v11a6.92,6.92,0,0,1-1.8,5.07,6.81,6.81,0,0,1-5.08,1.82h-4.27a3,3,0,0,1-2-.69,2.89,2.89,0,0,1,0-4,3,3,0,0,1,2-.68h1.82a2.47,2.47,0,0,0,1.8-.6,2.57,2.57,0,0,0,.59-1.9V126.19a6.75,6.75,0,0,1,1.34-4.27,5.45,5.45,0,0,1,3.16-2.1,5.43,5.43,0,0,1-3.16-2.13,6.85,6.85,0,0,1-1.34-4.3V102.47a2.59,2.59,0,0,0-.59-1.91,2.47,2.47,0,0,0-1.8-.6h-1.82a2.68,2.68,0,1,1,0-5.34h4.27a6.81,6.81,0,0,1,5.09,1.82,6.91,6.91,0,0,1,1.79,5.06v11a5.38,5.38,0,0,0,.79,3.3,3.88,3.88,0,0,0,2.85,1.2,2.86,2.86,0,0,1,2,.79Zm0,0"></path><path class="cls-1" d="M122.31,65.35l-2.6-3.78a6.47,6.47,0,0,0-5.33-2.79H78.28a4.06,4.06,0,0,0-4.06,4.06V81.09H190.47v-8.9a4.05,4.05,0,0,0-4.06-4H127.64a6.51,6.51,0,0,1-5.33-2.79Zm0,0"></path><path d="M112.66,118.3a7.89,7.89,0,0,0,1.54-4.92V102.47a1.8,1.8,0,0,1,.31-1.19,1.59,1.59,0,0,1,1.07-.31h1.83a3.55,3.55,0,0,0,3.8-3.68,3.56,3.56,0,0,0-3.8-3.69h-4.28a7.27,7.27,0,0,0-7.89,7.9v11a4.42,4.42,0,0,1-.59,2.68,3.09,3.09,0,0,1-2.08.81,3.8,3.8,0,0,0-2.71,1.1,4,4,0,0,0,0,5.32,3.62,3.62,0,0,0,2.65,1.11,3.19,3.19,0,0,1,2.13.82,4.44,4.44,0,0,1,.58,2.67v11a7.93,7.93,0,0,0,2.08,5.78,7.83,7.83,0,0,0,5.81,2.12h4.27a3.75,3.75,0,0,0,2.65-6.45,3.93,3.93,0,0,0-2.65-.92h-1.83a1.59,1.59,0,0,1-1.07-.31,1.79,1.79,0,0,1-.31-1.19V126.19a7.72,7.72,0,0,0-1.55-4.9,7.41,7.41,0,0,0-1.53-1.48,7.65,7.65,0,0,0,1.55-1.51Zm-4.18,2.5a4.43,4.43,0,0,1,2.57,1.74,5.69,5.69,0,0,1,1.13,3.64v10.93a3.55,3.55,0,0,0,.89,2.62,3.36,3.36,0,0,0,2.51.89h1.82a2,2,0,0,1,1.33.44,1.67,1.67,0,0,1-1.33,2.88h-4.27a5.28,5.28,0,0,1-5.87-5.87V127a6.26,6.26,0,0,0-1-3.92,4.84,4.84,0,0,0-3.6-1.59,1.63,1.63,0,0,1-1.76-1.78,1.69,1.69,0,0,1,.43-1.23,1.93,1.93,0,0,1,1.37-.49,4.78,4.78,0,0,0,3.56-1.58,6.33,6.33,0,0,0,1-3.92v-11a5.88,5.88,0,0,1,1.5-4.35,5.8,5.8,0,0,1,4.37-1.52h4.26a1.9,1.9,0,0,1,1.33.44,1.87,1.87,0,0,1,0,2.43,1.9,1.9,0,0,1-1.33.44h-1.82a3.41,3.41,0,0,0-2.51.9,3.58,3.58,0,0,0-.9,2.62v10.93a5.75,5.75,0,0,1-1.12,3.67,4.41,4.41,0,0,1-2.57,1.76,1,1,0,0,0,0,2Zm0,0"></path><path d="M136.08,106.81a5.23,5.23,0,0,0-9,3.73,5.16,5.16,0,0,0,1.49,3.75,5.34,5.34,0,0,0,7.48,0,5.23,5.23,0,0,0,1.48-3.75,5.15,5.15,0,0,0-1.49-3.73Zm-1.45,6.07a3.31,3.31,0,0,1-4.57,0,3.4,3.4,0,0,1,0-4.63,3.24,3.24,0,0,1,2.28-1,3.2,3.2,0,0,1,2.28,1,3.14,3.14,0,0,1,.92,2.3,3.18,3.18,0,0,1-.91,2.33Zm0,0"></path><path d="M128.09,140.24a2.79,2.79,0,0,0,1,2.11,3.12,3.12,0,0,0,2.16.83,3.19,3.19,0,0,0,2.32-1.05,14.07,14.07,0,0,0,4-10,7.36,7.36,0,0,0-1.43-4.8,5.16,5.16,0,0,0-7.57-.25,5.26,5.26,0,0,0-1.45,3.74,4.86,4.86,0,0,0,1.33,3.46,5,5,0,0,0,2.15,1.35,8,8,0,0,1-1.68,2.64,2.94,2.94,0,0,0-.83,2Zm2.32-.62a9.81,9.81,0,0,0,2.47-4.56,1,1,0,0,0-.89-1.23,3.22,3.22,0,0,1-2.07-1,2.86,2.86,0,0,1-.77-2.06,3.28,3.28,0,0,1,.88-2.35,3.17,3.17,0,0,1,2.31-.9,3.11,3.11,0,0,1,2.24,1,5.36,5.36,0,0,1,1,3.51,11.91,11.91,0,0,1-3.46,8.61,1.18,1.18,0,0,1-.87.44,1.11,1.11,0,0,1-.8-.3.78.78,0,0,1-.29-.61.85.85,0,0,1,.29-.63Zm0,0"></path><path d="M152,121.29a7.72,7.72,0,0,0-1.55,4.9v10.92a1.8,1.8,0,0,1-.31,1.19,1.63,1.63,0,0,1-1.07.3h-1.82a3.74,3.74,0,0,0-2.65,6.45,3.93,3.93,0,0,0,2.65.92h4.27a7.27,7.27,0,0,0,7.89-7.9V127a4.42,4.42,0,0,1,.59-2.68,3.08,3.08,0,0,1,2.08-.8,3.73,3.73,0,0,0,2.76-1.17,3.79,3.79,0,0,0,.94-2.63,3.63,3.63,0,0,0-1-2.64,3.8,3.8,0,0,0-2.66-1.1,3.1,3.1,0,0,1-2.13-.81,4.42,4.42,0,0,1-.59-2.68v-11a7.27,7.27,0,0,0-7.89-7.9h-4.27a4,4,0,0,0-2.65.93,3.89,3.89,0,0,0,0,5.52,4,4,0,0,0,2.65.93h1.82a1.59,1.59,0,0,1,1.08.3,1.74,1.74,0,0,1,.3,1.19v10.92a7.59,7.59,0,0,0,3.07,6.42,7.89,7.89,0,0,0-1.52,1.48Zm4.17-2.47a4.41,4.41,0,0,1-2.57-1.76,5.76,5.76,0,0,1-1.12-3.67V102.47a3.62,3.62,0,0,0-.9-2.63,3.4,3.4,0,0,0-2.51-.89h-1.82a2,2,0,0,1-1.33-.44,1.91,1.91,0,0,1,0-2.44,2,2,0,0,1,1.33-.44h4.27a5.3,5.3,0,0,1,5.87,5.88v11a6.27,6.27,0,0,0,1,3.93A4.83,4.83,0,0,0,162,118a1.86,1.86,0,0,1,1.33.49,1.64,1.64,0,0,1,.43,1.23,1.6,1.6,0,0,1-1.8,1.78,4.8,4.8,0,0,0-3.57,1.58,6.32,6.32,0,0,0-1,3.92v11a5.87,5.87,0,0,1-1.5,4.35,5.79,5.79,0,0,1-4.36,1.52h-4.27a1.67,1.67,0,0,1-1.33-2.88,2,2,0,0,1,1.33-.44h1.82a3.36,3.36,0,0,0,2.51-.89,3.6,3.6,0,0,0,.9-2.62V126.19a5.68,5.68,0,0,1,1.11-3.65,4.53,4.53,0,0,1,2.58-1.74,1,1,0,0,0,0-2Zm0,0"></path><path class="cls-4" d="M186.41,67.12H127.64a5.47,5.47,0,0,1-4.49-2.35L120.54,61a7.5,7.5,0,0,0-6.16-3.23H78.28a5.07,5.07,0,0,0-5.07,5.07v95a5.07,5.07,0,0,0,5.07,5.07H186.41a5.07,5.07,0,0,0,5.07-5.07V150.2a1,1,0,0,0-2,0v7.62a3,3,0,0,1-3,3H78.28a3,3,0,0,1-3-3V82.11H189.45v68.21a1,1,0,0,0,2,0V72.19a5.08,5.08,0,0,0-5.07-5.07ZM75.24,62.84a3,3,0,0,1,3-3.05h36.1a5.45,5.45,0,0,1,4.49,2.36l2.61,3.77a7.5,7.5,0,0,0,6.16,3.23h58.77a3,3,0,0,1,3,3v7.89H75.24Zm0,0"></path><path class="cls-1" d="M113.63,70.36a3.3,3.3,0,1,1-3.3-3.3,3.31,3.31,0,0,1,3.3,3.3Zm0,0"></path><path class="cls-3" d="M101.64,70.36a3.31,3.31,0,1,1-3.31-3.3,3.31,3.31,0,0,1,3.31,3.3Zm0,0"></path><path class="cls-9" d="M89.64,70.36a3.3,3.3,0,1,1-3.3-3.3,3.3,3.3,0,0,1,3.3,3.3Zm0,0"></path></svg> 